
<global>
amp_veltrack=0
</global>

<group>
ampeg_attack=0.01
ampeg_release=0.35
group_label=PP
loop_mode=loop_continuous
xf_cccurve=gain
xfin_hicc1=63
xfout_hicc1=127
xfout_locc1=64

<region>
hikey=A4
hivel=127
lokey=G4
loop_end=264617
loop_mode=loop_continuous
loop_start=77855
loop_xfade=33821
lovel=0
offset=467
pitch_keycenter=G4
sample=Tenors_Ah_sustain_PP_G4.opus
</region>

<region>
hikey=G#3
hivel=127
lokey=G3
loop_end=263948
loop_mode=loop_continuous
loop_start=77659
loop_xfade=33735
lovel=0
offset=1094
pitch_keycenter=G3
sample=Tenors_Ah_sustain_PP_G3.opus
</region>

<region>
hikey=F#4
hivel=127
lokey=F4
loop_end=265142
loop_mode=loop_continuous
loop_start=78010
loop_xfade=33888
lovel=0
offset=1271
pitch_keycenter=F4
sample=Tenors_Ah_sustain_PP_F4.opus
</region>

<region>
hikey=F#3
hivel=127
lokey=F3
loop_end=262711
loop_mode=loop_continuous
loop_start=77295
loop_xfade=33577
lovel=0
offset=44
pitch_keycenter=F3
sample=Tenors_Ah_sustain_PP_F3.opus
</region>

<region>
hikey=E4
hivel=127
lokey=D#4
loop_end=267130
loop_mode=loop_continuous
loop_start=78595
loop_xfade=34142
lovel=0
offset=1501
pitch_keycenter=D#4
sample=Tenors_Ah_sustain_PP_D#4.opus
</region>

<region>
hikey=E3
hivel=127
lokey=D#3
loop_end=277750
loop_mode=loop_continuous
loop_start=81720
loop_xfade=35499
lovel=0
offset=13333
pitch_keycenter=D#3
sample=Tenors_Ah_sustain_PP_D#3.opus
</region>

<region>
hikey=C3
hivel=127
lokey=F2
loop_end=277750
loop_mode=loop_continuous
loop_start=81720
loop_xfade=35499
lovel=0
offset=16242
pitch_keycenter=C3
sample=Tenors_Ah_sustain_PP_C3.opus
</region>

<region>
hikey=D4
hivel=127
lokey=C#4
loop_end=264579
loop_mode=loop_continuous
loop_start=77844
loop_xfade=33816
lovel=0
offset=170
pitch_keycenter=C#4
sample=Tenors_Ah_sustain_PP_C#4.opus
</region>

<region>
hikey=D3
hivel=127
lokey=C#3
loop_end=265735
loop_mode=loop_continuous
loop_start=78184
loop_xfade=33964
lovel=0
offset=10269
pitch_keycenter=C#3
sample=Tenors_Ah_sustain_PP_C#3.opus
</region>

<region>
hikey=C4
hivel=127
lokey=B3
loop_end=265204
loop_mode=loop_continuous
loop_start=78028
loop_xfade=33896
lovel=0
offset=1180
pitch_keycenter=B3
sample=Tenors_Ah_sustain_PP_B3.opus
</region>

<region>
hikey=A#3
hivel=127
lokey=A3
loop_end=267201
loop_mode=loop_continuous
loop_start=78616
loop_xfade=34151
lovel=0
offset=1124
pitch_keycenter=A3
sample=Tenors_Ah_sustain_PP_A3.opus
</region>

<region>
hikey=E5
hivel=127
lokey=A#4
loop_end=268200
loop_mode=loop_continuous
loop_start=78910
loop_xfade=34278
lovel=0
offset=308
pitch_keycenter=A#4
sample=Tenors_Ah_sustain_PP_A#4.opus
</region>
</group>

<group>
ampeg_attack=0.01
ampeg_release=0.35
group_label=FF
loop_mode=loop_continuous
xf_cccurve=gain
xfin_hicc1=127
xfin_locc1=64
xfout_hicc1=127
xfout_locc1=127

<region>
hikey=A4
hivel=127
lokey=G4
loop_end=188051
loop_mode=loop_continuous
loop_start=55328
loop_xfade=24035
lovel=0
pitch_keycenter=G4
sample=Tenors_Ah_sustain_FF_G4.opus
</region>

<region>
hikey=G#3
hivel=127
lokey=G3
loop_end=188356
loop_mode=loop_continuous
loop_start=55418
loop_xfade=24074
lovel=0
pitch_keycenter=G3
sample=Tenors_Ah_sustain_FF_G3.opus
</region>

<region>
hikey=F#4
hivel=127
lokey=F4
loop_end=187756
loop_mode=loop_continuous
loop_start=55241
loop_xfade=23997
lovel=0
pitch_keycenter=F4
sample=Tenors_Ah_sustain_FF_F4.opus
</region>

<region>
hikey=F#3
hivel=127
lokey=F3
loop_end=188231
loop_mode=loop_continuous
loop_start=55381
loop_xfade=24058
lovel=0
pitch_keycenter=F3
sample=Tenors_Ah_sustain_FF_F3.opus
</region>

<region>
hikey=E4
hivel=127
lokey=D#4
loop_end=188190
loop_mode=loop_continuous
loop_start=55369
loop_xfade=24052
lovel=0
pitch_keycenter=D#4
sample=Tenors_Ah_sustain_FF_D#4.opus
</region>

<region>
hikey=E3
hivel=127
lokey=D#3
loop_end=188939
loop_mode=loop_continuous
loop_start=55590
loop_xfade=24148
lovel=0
pitch_keycenter=D#3
sample=Tenors_Ah_sustain_FF_D#3.opus
</region>

<region>
hikey=C3
hivel=127
lokey=F2
loop_end=187279
loop_mode=loop_continuous
loop_start=55101
loop_xfade=23936
lovel=0
pitch_keycenter=C3
sample=Tenors_Ah_sustain_FF_C3.opus
</region>

<region>
hikey=D4
hivel=127
lokey=C#4
loop_end=188524
loop_mode=loop_continuous
loop_start=55467
loop_xfade=24095
lovel=0
pitch_keycenter=C#4
sample=Tenors_Ah_sustain_FF_C#4.opus
</region>

<region>
hikey=D3
hivel=127
lokey=C#3
loop_end=188229
loop_mode=loop_continuous
loop_start=55381
loop_xfade=24057
lovel=0
pitch_keycenter=C#3
sample=Tenors_Ah_sustain_FF_C#3.opus
</region>

<region>
hikey=C4
hivel=127
lokey=B3
loop_end=185600
loop_mode=loop_continuous
loop_start=54607
loop_xfade=23721
lovel=0
pitch_keycenter=B3
sample=Tenors_Ah_sustain_FF_B3.opus
</region>

<region>
hikey=A#3
hivel=127
lokey=A3
loop_end=187793
loop_mode=loop_continuous
loop_start=55252
loop_xfade=24002
lovel=0
pitch_keycenter=A3
sample=Tenors_Ah_sustain_FF_A3.opus
</region>

<region>
hikey=E5
hivel=127
lokey=A#4
loop_end=188557
loop_mode=loop_continuous
loop_start=55477
loop_xfade=24099
lovel=0
pitch_keycenter=A#4
sample=Tenors_Ah_sustain_FF_A#4.opus
</region>
</group>